<svg id="Layer_1" data-name="Layer 1" xmlns="http://www.w3.org/2000/svg" viewBox="0 0 206.17 256.69"><path d="M307.06,524.42c-22.81,1.55-45.24-2-67.47-6.51-36.23-7.33-49.82-48.21-22.9-75.7,19.81-20.23,23.73-41.1,19.13-67.43-3.86-22.15-2.06-44.16,7-64.92,12.44-28.57,38.45-44.83,65.43-41.28,32.56,4.28,55.9,27.07,61.38,59.77a117.73,117.73,0,0,1,.51,37.28c-4.49,29.89-1.29,54.72,24,76.77,27.13,23.66,14.08,67.51-19.63,74.85C352.32,522.08,329.87,525.74,307.06,524.42Zm-5.21-8.16c21-2.54,44.54-4.46,67.7-8.58,10.48-1.86,25.73-.3,26.27-18.56.6-20.47,1.33-42.68-21.89-50.31-14.27-4.69-28.19-25.52-45.37-3.41-12.54,16.15-31.06,17.79-42.74,3-13.2-16.71-24.48-11.42-37.74-5.24-15.76,7.35-31.14,14-33,37.21-1.7,21.62,1.61,35.44,24.86,37.51C259.8,509.65,279.48,513.16,301.85,516.26Zm-57.68-94.88c20.13-4.63,41.07-3.26,21.42-32.17-7.91-11.65-15.15-34.35-6.42-39.89C280.34,335.86,306,330.45,330,321.91c.5-.18,1.83.81,2.08,1.53,6.41,18.32,29.12,31.47,15.64,56.18A178.06,178.06,0,0,0,337,402.86c-4.5,12.13,6.2,11.65,11.94,14.24,4.58,2.07,13.11,3.84,11.41-5.11-5.46-28.86,6.33-57.52-.22-86.15-5.81-25.33-29.21-46.36-55.52-47.64-24-1.18-41.52,11.19-52.37,34a95.56,95.56,0,0,0-7.93,59C247.26,387.19,250.69,402.79,244.17,421.38Zm64-14.37c13.94-.13,22.73-11.25,29.51-26.08,7-15.34,4.32-31.35-7.62-38.31-20-11.67-34.82,17.72-55.76,13.24-4.57-1-7.51,2.49-7.6,8.93C266.42,383.72,286.91,406.73,308.15,407Zm-2.68,9.17c-5.85,3.63-17.93-9.1-18.05,6.92-.07,9.61,8.65,13.4,17.49,13.52,8.67.11,17.46-2.52,17.91-12.68C323.55,407.29,311.13,419.76,305.47,416.18Z" transform="translate(-202.53 -268.09)"/></svg>