<svg id="Layer_1" data-name="Layer 1" xmlns="http://www.w3.org/2000/svg" viewBox="0 0 201.65 251.89"><path d="M302.26,521.62a202.36,202.36,0,0,1-65.77-7.23c-11.88-3.32-30.8-.73-30.78-21.11,0-21.24-5.31-46.09,17.25-59.88,12.44-7.6,26-13.3,39.59-18.53,11.29-4.35,14.32-9.13,7-20.8-5.95-9.44-9.11-20.81-14-31.06-16.41-34.34-15-52.48,5.64-68.72,38-29.89,65.38-32,90.38-7,18,18.1,21.71,39.16,10.8,62.85C360,355.33,356.73,360,354,365c-21.87,39.64-21.86,39.64,17,58.53,29.8,14.47,39.6,35.46,34.52,69.84-1.85,12.51-9.57,14.8-18.42,17.52C359.92,519.28,332.13,522.58,302.26,521.62Zm-5.74-8.46c33.38-1.27,58.6-3.37,83.26-10.35,6.09-1.73,14.6-2.26,15.42-9.59,2.13-19,5.19-41.37-13.92-51.49-15.9-8.41-32.42-32.61-53.78-7.68-11.43,13.33-28.84,17-38.69,4.56-23.52-29.62-42.1-6.68-60.8,3.52-17.41,9.5-14.07,29.83-13.25,46.76.79,16.48,15.85,14,25.17,16C261.12,509.46,282.84,511.29,296.52,513.16ZM310,404.22c18.28-1.45,24.91-18.94,31.48-37.52,3-8.41-2.23-19.86,8.1-25.42,16.42-8.85,10.87-22.37,4.83-33.77-9.34-17.66-27.51-35.13-43.15-26.29-19.46,11-48.08,10.5-57.33,38.87-1.13,3.47-2.3,9.19-.64,11.09,13.45,15.32,11.86,37.2,21.61,53.95C282,397.35,292,404.54,310,404.22Zm-5.94,9.93c-5.61,3.85-17.48-11.08-17.73,5.82-.13,9.07,8.51,13.65,17.32,14.11,9.9.52,19.75-3.18,19.13-14.36C321.92,404.19,310,418.47,304.07,414.15Z" transform="translate(-205.17 -270.05)"/><path d="M356.61,326.87c-26.3,27.17-68.69-20.69-90.73,24.6C285.29,299.93,326.71,334.75,356.61,326.87Z" transform="translate(-205.17 -270.05)"/></svg>