<svg width="151" height="144" viewBox="0 0 151 144" fill="none" xmlns="http://www.w3.org/2000/svg">
<g clip-path="url(#clip0_119_116)">
<path d="M73.8053 0C74.2494 0.185599 74.7255 0.107076 75.1802 0.149906C79.0856 0.511826 82.8839 1.63186 86.3644 3.44786C88.6528 4.65307 90.7901 6.12804 92.7309 7.84157C96.3625 11.0245 99.4211 14.8121 101.773 19.0382C103.745 22.575 105.171 26.3925 106.001 30.3597C106.44 32.4325 106.731 34.5342 106.871 36.6487C107.009 38.8139 107.021 40.9853 106.907 43.1518C106.707 47.236 105.946 51.2728 104.647 55.148C103.098 59.7663 100.702 64.0529 97.584 67.7865C95.169 70.7483 92.3218 73.3259 89.1391 75.4318C85.6357 77.6978 81.7255 79.2546 77.6281 80.0147C76.9602 80.1432 76.2923 80.2467 75.6208 80.3716C74.9493 80.4965 74.7788 80.7892 75.1447 81.3781C76.1466 83.0021 77.1769 84.5904 78.2001 86.218C78.5453 86.6763 78.7166 87.2432 78.6833 87.817C78.6288 88.1354 78.4959 88.4351 78.2967 88.6889C78.0976 88.9426 77.8384 89.1422 77.5428 89.2696C75.5629 90.3897 73.2802 90.8496 71.0235 90.5831C69.3214 90.3622 67.6672 89.8606 66.1278 89.0983C64.9483 88.5415 64.7067 87.6921 65.4172 86.5999C66.4227 85.0151 67.4423 83.434 68.4371 81.8385C68.9771 80.9712 68.7923 80.5536 67.762 80.3823C66.4759 80.1681 65.1969 79.9433 63.9357 79.6078C59.5672 78.4736 55.4909 76.4132 51.9806 73.5651C47.7437 70.0962 44.2509 65.8004 41.7131 60.9372C39.5879 56.9018 38.147 52.5387 37.4498 48.0274C36.9357 44.73 36.7666 41.3877 36.9453 38.055C37.1147 33.496 37.9527 28.9872 39.4322 24.674C40.9237 20.3073 43.2223 16.2627 46.2074 12.7528C49.6406 8.68336 53.8741 5.37082 58.6421 3.02313C61.5925 1.58258 64.7654 0.656838 68.025 0.285538C68.6551 0.195703 69.2896 0.139705 69.9257 0.117785C70.0109 0.117785 70.0998 0.117784 70.1566 0.0392616L73.8053 0ZM72.0929 77.2699C73.052 77.2674 74.0103 77.2126 74.9635 77.1058C81.3051 76.5171 87.2528 73.7576 91.8108 69.2892C95.7021 65.5066 98.771 60.955 100.824 55.9213C102.876 50.8876 103.869 45.4812 103.737 40.043C103.702 38.9044 103.67 37.7659 103.567 36.6309C103.338 34.109 102.908 31.6096 102.281 29.1569C100.844 23.3759 98.0082 18.0412 94.0242 13.6273C91.0043 10.2758 87.5403 7.49892 83.3871 5.66434C78.5796 3.51949 73.2708 2.76783 68.0605 3.49426C65.3217 3.88268 62.6517 4.66022 60.1307 5.80354C55.2172 8.0343 51.3127 11.5143 48.0157 15.7331C45.616 18.7774 43.7063 22.181 42.3562 25.8197C41.015 29.3858 40.2382 33.1409 40.054 36.9485C40.0066 38.6154 40.0517 40.2836 40.189 41.9454C40.3241 44.0466 40.5803 46.1381 40.9564 48.2094C41.6157 51.9728 42.796 55.6251 44.463 59.0598C46.319 62.8903 48.8752 66.3361 51.9984 69.2178C54.0824 71.1559 56.4089 72.8129 58.9192 74.1469C62.9758 76.2795 67.501 77.3534 72.0787 77.2699H72.0929ZM72.267 87.3744C73.0179 87.4099 73.768 87.2884 74.4697 87.0175C74.7361 86.9175 74.7823 86.8033 74.6402 86.5499C74.1464 85.6862 73.5921 84.8581 73.18 83.9479C73.0654 83.6714 72.9044 83.4166 72.704 83.1948C72.1071 82.5702 71.6204 82.5916 71.0874 83.2698C70.5545 83.9479 70.3236 84.7332 69.8795 85.4113C69.7112 85.6574 69.5581 85.9137 69.4212 86.1787C69.2222 86.5963 69.3075 86.8033 69.7125 87.0032C69.8783 87.0849 70.0538 87.1449 70.2348 87.1817C70.8981 87.3219 71.575 87.3866 72.2528 87.3744H72.267Z" fill="#8FD6BF"/>
<path d="M0 92.4177C0.142111 92.3285 0.0781595 92.1893 0.0817123 92.0608C0.301984 86.2323 1.39624 80.5929 3.85121 75.2855C7.54609 67.2762 13.2341 61.1086 21.0147 56.9718C24.5094 55.1385 28.3337 54.0257 32.2627 53.6989C32.9733 53.6346 33.6839 53.5918 34.3944 53.5525C34.6633 53.5329 34.9334 53.5401 35.2009 53.574C36.1175 53.6917 36.5261 54.1629 36.5403 55.0802C36.5545 55.9974 36.1175 56.5078 35.2187 56.6149C34.4051 56.7006 33.5773 56.6934 32.7566 56.7541C28.5435 57.067 24.4667 58.3914 20.869 60.616C12.4987 65.7236 7.14463 73.1083 4.68966 82.6309C3.65969 86.5721 3.14377 90.6309 3.15486 94.7056C3.1506 102.329 5.39849 109.782 9.61381 116.121C11.7694 119.505 14.4821 122.495 17.636 124.965C21.4086 127.86 25.8464 129.753 30.5396 130.469C32.1356 130.735 33.7502 130.871 35.3679 130.876C42.1608 130.847 48.1365 128.552 53.3342 124.177C60.12 118.466 64.2874 111.199 66.0567 102.508C66.579 99.9367 66.8951 97.3276 67.0018 94.7056C66.9906 94.3216 67.0096 93.9373 67.0586 93.5563C67.1006 93.189 67.2856 92.8532 67.5731 92.6225C67.8607 92.3918 68.2275 92.2848 68.5934 92.3249C69.4923 92.3249 70.0145 92.7604 70.1211 93.6098C70.1987 94.5486 70.1892 95.4925 70.0927 96.4295C69.812 102.651 68.1244 108.497 65.3604 114.047C63.5304 117.81 61.0826 121.237 58.1198 124.184C54.0626 128.167 49.4191 131.208 43.9478 132.875C42.3146 133.359 40.6399 133.687 38.9455 133.856L38.7359 133.885C38.0893 133.999 37.9294 134.302 38.2527 134.87C38.576 135.437 38.9064 135.941 39.2404 136.465C39.9332 137.561 40.6331 138.653 41.3223 139.753C41.4617 139.967 41.5806 140.194 41.6776 140.431C42.0329 141.323 41.8233 142.03 41.0203 142.54C39.9445 143.184 38.7571 143.618 37.5208 143.818C37.0377 143.911 36.5403 143.95 36.0464 144.014C35.8653 144.014 35.6912 144.014 35.4958 144.014C33.3168 144.028 31.1651 143.527 29.2145 142.551C28.3227 142.137 28.074 141.455 28.4577 140.545C28.5366 140.362 28.6293 140.186 28.7348 140.017C29.6799 138.493 30.632 136.972 31.5771 135.445C31.8613 134.981 32.11 134.495 32.3906 133.996C31.7796 133.899 31.2324 133.817 30.6889 133.724C23.2565 132.493 16.8863 129.231 11.6638 123.73C4.27043 115.953 0.476072 106.677 0.0888194 95.9584C0.134168 95.666 0.107327 95.367 0.0106579 95.0875L0 92.4177ZM35.9647 140.988L36.892 140.898C36.9757 140.887 37.0578 140.867 37.1371 140.838C37.8228 140.62 38.0111 140.124 37.5741 139.574C37.0235 138.86 36.59 138.075 36.0997 137.326C35.9541 137.097 35.8049 136.872 35.6379 136.658C35.2151 136.119 34.9273 136.112 34.5472 136.658C33.9503 137.508 33.389 138.382 32.7708 139.21C32.1988 139.967 32.4155 140.541 33.3428 140.806C33.5066 140.851 33.6743 140.881 33.8437 140.895C34.5401 140.966 35.2506 140.888 35.9647 140.988Z" fill="#F4A617"/>
<path d="M147.916 66.7943C147.978 58.2038 145.258 49.826 140.168 42.9234C137.828 39.5751 134.848 36.7281 131.401 34.5485C127.955 32.3688 124.111 30.9 120.094 30.2277C118.233 29.8708 116.375 30.0314 114.513 30.1956C113.233 30.352 111.944 30.4212 110.655 30.4026C110.348 30.3872 110.055 30.2725 109.818 30.0756C109.582 29.8788 109.416 29.6103 109.344 29.3104C109.24 28.9494 109.265 28.5634 109.415 28.2193C109.565 27.8751 109.83 27.5944 110.164 27.4259C110.704 27.2026 111.283 27.0898 111.866 27.0939C113.358 27.0047 114.851 26.8726 116.35 26.8976C123.647 27.0118 130.181 29.2926 135.862 33.9254C140.601 37.7627 144.423 42.6196 147.046 48.138C148.761 51.7484 149.92 55.5994 150.485 59.5595C150.655 60.7302 150.769 61.9009 150.84 63.0859C150.947 64.817 151.028 66.548 150.986 68.2791C150.819 75.1891 149.366 81.7814 146.104 87.9098C144.289 91.3082 142.006 94.4323 139.322 97.1897C136.492 100.138 133.165 102.559 129.495 104.342C126.591 105.711 123.514 106.672 120.35 107.198C119.963 107.266 119.579 107.387 119.188 107.444C118.858 107.494 118.865 107.601 119.021 107.851C120.109 109.59 121.19 111.332 122.265 113.076C122.561 113.516 122.718 114.034 122.716 114.565C122.725 114.785 122.678 115.004 122.581 115.202C122.483 115.399 122.338 115.569 122.159 115.696C121.062 116.468 119.809 116.985 118.489 117.209C115.444 117.806 112.602 117.124 109.902 115.703C109.752 115.637 109.617 115.542 109.505 115.423C109.392 115.303 109.305 115.163 109.248 115.009C109.191 114.855 109.165 114.691 109.173 114.527C109.18 114.363 109.22 114.202 109.29 114.054C109.646 113.044 110.321 112.191 110.875 111.277C111.429 110.364 112.04 109.457 112.626 108.547C112.722 108.405 112.809 108.257 112.886 108.104C113.106 107.615 113.003 107.33 112.488 107.198C111.816 107.027 111.127 106.916 110.449 106.78C104.638 105.68 99.2253 103.043 94.7667 99.1421C91.2495 96.0369 88.5032 92.3213 86.24 88.2167C85.4336 86.7391 84.7088 85.2257 84.0338 83.6838C83.8226 83.2946 83.7172 82.8564 83.7282 82.4132C83.8313 81.3424 85.263 80.7999 86.1903 81.4531C86.5532 81.725 86.8297 82.097 86.9861 82.5238C88.3314 85.8402 90.1116 88.9612 92.2798 91.8038C95.4773 96.0155 99.3853 99.3955 104.199 101.644C106.821 102.884 109.625 103.69 112.502 104.032C119.164 104.803 125.324 103.29 131.001 99.7667C136.571 96.3465 141.019 91.3603 143.795 85.4256C145.47 81.8495 146.629 78.0517 147.238 74.1469C147.581 72.1951 147.783 70.221 147.842 68.2398C147.866 67.6866 147.902 67.1155 147.916 66.7943ZM117.327 114.265C117.426 114.265 117.526 114.265 117.625 114.265C117.832 114.277 118.038 114.229 118.218 114.125C118.398 114.022 118.544 113.868 118.638 113.683C118.815 113.276 118.563 112.969 118.343 112.677C118.086 112.34 117.848 111.988 117.632 111.624C117.317 111.034 116.942 110.477 116.513 109.964C116.158 109.557 115.891 109.546 115.572 109.964C114.861 110.906 114.264 111.923 113.543 112.859C113.206 113.298 113.397 113.772 113.898 114.022C114.094 114.107 114.299 114.166 114.509 114.197C115.437 114.376 116.389 114.069 117.327 114.254V114.265Z" fill="#EC57B2"/>
<path d="M121.341 35.9705C122.336 35.9705 123.246 36.3703 124.162 36.6844C128.012 38.0707 131.483 40.3473 134.295 43.3302C136.109 45.2109 137.61 47.373 138.739 49.7334C139.35 51.0183 138.906 52.0034 137.542 52.3818C137.002 52.5317 136.675 52.2319 136.384 51.8749C136.012 51.3368 135.685 50.7686 135.407 50.176C132.231 44.5866 127.527 40.9638 121.405 39.1578L120.88 38.9936C119.434 38.5189 119.458 37.3554 120.258 36.3346C120.388 36.1805 120.558 36.0651 120.749 36.0009C120.94 35.9367 121.145 35.9262 121.341 35.9705Z" fill="#EC57B2"/>
<path d="M60.589 96.7364C60.5477 98.364 60.3634 99.9848 60.0383 101.58C59.0897 106.127 57.1748 110.26 54.6203 114.108C54.0377 114.982 53.4231 115.839 52.7978 116.688C52.343 117.313 51.8669 117.495 51.3482 117.299C50.8295 117.102 50.0053 116.303 50.1048 115.621C50.1793 115.216 50.3432 114.833 50.5844 114.5C51.398 113.262 52.2684 112.066 53.0216 110.788C54.8192 107.862 56.115 104.652 56.855 101.294C57.0759 100.356 57.2173 99.401 57.2778 98.4389C57.3062 97.6394 57.4235 96.8399 57.4412 96.0333C57.4697 95.0732 58.0523 94.5556 59.008 94.5663C60.0348 94.5663 60.5393 95.0517 60.589 96.0583C60.5997 96.2796 60.589 96.508 60.589 96.7364Z" fill="#F4A616"/>
<path d="M77.3581 9.0729C78.0609 9.16093 78.7491 9.34215 79.4045 9.61185C82.3232 10.6111 85.0515 12.1017 87.4729 14.0198C90.177 16.2051 92.4445 18.8853 94.1556 21.9185C94.3688 22.2754 94.5713 22.6645 94.756 23.0499C94.9373 23.3988 94.9779 23.8044 94.8694 24.1826C94.7609 24.5607 94.5117 24.8824 94.1734 25.0808C93.2461 25.6876 92.4716 25.4913 91.9529 24.5026C90.6421 21.9482 88.9017 19.6407 86.8085 17.6818C84.1365 15.1451 80.8852 13.3066 77.3403 12.328C76.8968 12.2297 76.4728 12.0572 76.0862 11.8176C75.9276 11.7195 75.7983 11.5802 75.712 11.4143C75.6257 11.2484 75.5856 11.0622 75.5959 10.8754C75.6492 9.97949 76.1573 9.04435 77.3581 9.0729Z" fill="#8FD6BF"/>
</g>
<defs>
<clipPath id="clip0_119_116">
<rect width="151" height="144" fill="white"/>
</clipPath>
</defs>
</svg>
